# Blender v3.2.2 OBJ File: ''
# www.blender.org
mtllib itled.mtl
o Cube_Cube.001
v -1.000000 -1.000000 21.641047
v -1.000000 1.000000 21.641047
v -1.000000 -1.000000 -1.000000
v -1.000000 1.000000 -1.000000
v 35.850876 -1.000000 -1.000000
v 35.850876 1.000000 -1.000000
v -1.000000 -1.000000 6.547016
v -1.000000 -1.000000 14.094030
v -1.000000 1.000000 14.094030
v -1.000000 1.000000 6.547015
v 35.850876 -1.000000 14.094030
v 35.850876 -1.000000 6.547015
v 35.850876 1.000000 6.547016
v 35.850876 1.000000 14.094030
v 41.917088 1.000000 -1.000000
v 41.917088 -1.000000 -1.000000
v 41.917088 -1.000000 6.547015
v 41.917088 1.000000 14.094030
v 41.917088 1.000000 21.641047
v 41.917088 -1.000000 21.641047
v 41.917088 -1.000000 14.094030
v 41.917088 1.000000 6.547016
vt 0.375000 0.166667
vt 0.625000 0.166667
vt 0.625000 0.250000
vt 0.375000 0.250000
vt 0.625000 0.500000
vt 0.375000 0.500000
vt 0.375000 0.500000
vt 0.375000 0.583333
vt 0.375000 0.583333
vt 0.125000 0.583333
vt 0.125000 0.500000
vt 0.375000 1.000000
vt 0.375000 0.750000
vt 0.625000 0.750000
vt 0.625000 1.000000
vt 0.375000 0.666667
vt 0.375000 0.666667
vt 0.125000 0.750000
vt 0.125000 0.666667
vt 0.625000 0.583333
vt 0.625000 0.583333
vt 0.625000 0.500000
vt 0.875000 0.500000
vt 0.875000 0.583333
vt 0.875000 0.666667
vt 0.875000 0.750000
vt 0.625000 0.666667
vt 0.625000 0.666667
vt 0.375000 0.000000
vt 0.625000 0.000000
vt 0.625000 0.083333
vt 0.375000 0.083333
vn -1.0000 0.0000 0.0000
vn 0.0000 0.0000 -1.0000
vn 0.0000 -1.0000 0.0000
vn 0.0000 0.0000 1.0000
vn 0.0000 1.0000 0.0000
vn 1.0000 0.0000 0.0000
usemtl None
s off
f 7/1/1 10/2/1 4/3/1 3/4/1
f 3/4/2 4/3/2 6/5/2 5/6/2
f 5/6/3 16/7/3 17/8/3 12/9/3 7/10/3 3/11/3
f 1/12/4 20/13/4 19/14/4 2/15/4
f 11/16/3 21/17/3 20/13/3 1/18/3 8/19/3
f 13/20/5 22/21/5 15/22/5 6/5/5 4/23/5 10/24/5 9/25/5 2/26/5 19/14/5 18/27/5 14/28/5
f 7/10/3 12/9/3 11/16/3 8/19/3
f 11/16/2 14/28/2 18/27/2 21/17/2
f 12/9/6 13/20/6 14/28/6 11/16/6
f 1/29/1 2/30/1 9/31/1 8/32/1
f 8/32/1 9/31/1 10/2/1 7/1/1
f 21/17/6 18/27/6 19/14/6 20/13/6
f 16/7/6 15/22/6 22/21/6 17/8/6
f 5/6/2 6/5/2 15/22/2 16/7/2
f 13/20/4 12/9/4 17/8/4 22/21/4
